<svg xmlns="http://www.w3.org/2000/svg">
  <defs>
    <!--Heart-->
    <symbol id="icon-heart" viewBox="0 0 28 24">
      <svg width="28" height="24" viewBox="0 0 28 24" fill="none" xmlns="http://www.w3.org/2000/svg">
      <path d="M20.25 0C17.6688 0 15.4088 1.11 14 2.98625C12.5912 1.11 10.3312 0 7.75 0C5.69528 0.00231592 3.72539 0.819575 2.27248 2.27248C0.819575 3.72539 0.00231592 5.69528 0 7.75C0 16.5 12.9737 23.5825 13.5262 23.875C13.6719 23.9533 13.8346 23.9943 14 23.9943C14.1654 23.9943 14.3281 23.9533 14.4737 23.875C15.0262 23.5825 28 16.5 28 7.75C27.9977 5.69528 27.1804 3.72539 25.7275 2.27248C24.2746 0.819575 22.3047 0.00231592 20.25 0ZM14 21.85C11.7175 20.52 2 14.4612 2 7.75C2.00198 6.22561 2.60842 4.76423 3.68633 3.68633C4.76423 2.60842 6.22561 2.00198 7.75 2C10.1813 2 12.2225 3.295 13.075 5.375C13.1503 5.55841 13.2785 5.71528 13.4432 5.82569C13.6079 5.93609 13.8017 5.99503 14 5.99503C14.1983 5.99503 14.3921 5.93609 14.5568 5.82569C14.7215 5.71528 14.8497 5.55841 14.925 5.375C15.7775 3.29125 17.8187 2 20.25 2C21.7744 2.00198 23.2358 2.60842 24.3137 3.68633C25.3916 4.76423 25.998 6.22561 26 7.75C26 14.4513 16.28 20.5188 14 21.85Z" fill="white"/>
      </svg>
    </symbol>

    <!--General List-->
    <symbol id="icon-general-list" viewBox="0 0 25 19">
      <svg width="25" height="19" viewBox="0 0 25 19" fill="none" xmlns="http://www.w3.org/2000/svg">
      <path d="M7.45386 1.79749C7.45386 1.53227 7.55921 1.27792 7.74675 1.09038C7.93429 0.902842 8.18864 0.797485 8.45386 0.797485H23.4539C23.7191 0.797485 23.9734 0.902842 24.161 1.09038C24.3485 1.27792 24.4539 1.53227 24.4539 1.79749C24.4539 2.0627 24.3485 2.31706 24.161 2.50459C23.9734 2.69213 23.7191 2.79749 23.4539 2.79749H8.45386C8.18864 2.79749 7.93429 2.69213 7.74675 2.50459C7.55921 2.31706 7.45386 2.0627 7.45386 1.79749ZM23.4539 8.79749H8.45386C8.18864 8.79749 7.93429 8.90284 7.74675 9.09038C7.55921 9.27792 7.45386 9.53227 7.45386 9.79749C7.45386 10.0627 7.55921 10.3171 7.74675 10.5046C7.93429 10.6921 8.18864 10.7975 8.45386 10.7975H23.4539C23.7191 10.7975 23.9734 10.6921 24.161 10.5046C24.3485 10.3171 24.4539 10.0627 24.4539 9.79749C24.4539 9.53227 24.3485 9.27792 24.161 9.09038C23.9734 8.90284 23.7191 8.79749 23.4539 8.79749ZM23.4539 16.7975H8.45386C8.18864 16.7975 7.93429 16.9028 7.74675 17.0904C7.55921 17.2779 7.45386 17.5323 7.45386 17.7975C7.45386 18.0627 7.55921 18.3171 7.74675 18.5046C7.93429 18.6921 8.18864 18.7975 8.45386 18.7975H23.4539C23.7191 18.7975 23.9734 18.6921 24.161 18.5046C24.3485 18.3171 24.4539 18.0627 24.4539 17.7975C24.4539 17.5323 24.3485 17.2779 24.161 17.0904C23.9734 16.9028 23.7191 16.7975 23.4539 16.7975ZM3.45386 0.797485H1.45386C1.18864 0.797485 0.934287 0.902842 0.746751 1.09038C0.559214 1.27792 0.453857 1.53227 0.453857 1.79749C0.453857 2.0627 0.559214 2.31706 0.746751 2.50459C0.934287 2.69213 1.18864 2.79749 1.45386 2.79749H3.45386C3.71907 2.79749 3.97343 2.69213 4.16096 2.50459C4.3485 2.31706 4.45386 2.0627 4.45386 1.79749C4.45386 1.53227 4.3485 1.27792 4.16096 1.09038C3.97343 0.902842 3.71907 0.797485 3.45386 0.797485ZM3.45386 8.79749H1.45386C1.18864 8.79749 0.934287 8.90284 0.746751 9.09038C0.559214 9.27792 0.453857 9.53227 0.453857 9.79749C0.453857 10.0627 0.559214 10.3171 0.746751 10.5046C0.934287 10.6921 1.18864 10.7975 1.45386 10.7975H3.45386C3.71907 10.7975 3.97343 10.6921 4.16096 10.5046C4.3485 10.3171 4.45386 10.0627 4.45386 9.79749C4.45386 9.53227 4.3485 9.27792 4.16096 9.09038C3.97343 8.90284 3.71907 8.79749 3.45386 8.79749ZM3.45386 16.7975H1.45386C1.18864 16.7975 0.934287 16.9028 0.746751 17.0904C0.559214 17.2779 0.453857 17.5323 0.453857 17.7975C0.453857 18.0627 0.559214 18.3171 0.746751 18.5046C0.934287 18.6921 1.18864 18.7975 1.45386 18.7975H3.45386C3.71907 18.7975 3.97343 18.6921 4.16096 18.5046C4.3485 18.3171 4.45386 18.0627 4.45386 17.7975C4.45386 17.5323 4.3485 17.2779 4.16096 17.0904C3.97343 16.9028 3.71907 16.7975 3.45386 16.7975Z" fill="white"/>
      </svg>
    </symbol>

    <!--Expand Selection Icon-->
    <symbol id="icon-expand-selection" viewBox="0 0 32 32">
      <svg width="32" height="32" viewBox="0 0 32 32" fill="none" xmlns="http://www.w3.org/2000/svg">
      <path d="M28 16.0008C28 16.266 27.8946 16.5204 27.7071 16.7079C27.5196 16.8954 27.2652 17.0008 27 17.0008H5C4.73478 17.0008 4.48043 16.8954 4.29289 16.7079C4.10536 16.5204 4 16.266 4 16.0008C4 15.7356 4.10536 15.4812 4.29289 15.2937C4.48043 15.1061 4.73478 15.0008 5 15.0008H27C27.2652 15.0008 27.5196 15.1061 27.7071 15.2937C27.8946 15.4812 28 15.7356 28 16.0008ZM12.7075 6.70829L15 4.41454V12.0008C15 12.266 15.1054 12.5204 15.2929 12.7079C15.4804 12.8954 15.7348 13.0008 16 13.0008C16.2652 13.0008 16.5196 12.8954 16.7071 12.7079C16.8946 12.5204 17 12.266 17 12.0008V4.41454L19.2925 6.70829C19.4801 6.89593 19.7346 7.00134 20 7.00134C20.2654 7.00134 20.5199 6.89593 20.7075 6.70829C20.8951 6.52065 21.0006 6.26615 21.0006 6.00079C21.0006 5.73542 20.8951 5.48093 20.7075 5.29329L16.7075 1.29329C16.6146 1.20031 16.5043 1.12655 16.3829 1.07623C16.2615 1.0259 16.1314 1 16 1C15.8686 1 15.7385 1.0259 15.6171 1.07623C15.4957 1.12655 15.3854 1.20031 15.2925 1.29329L11.2925 5.29329C11.1049 5.48093 10.9994 5.73542 10.9994 6.00079C10.9994 6.26615 11.1049 6.52065 11.2925 6.70829C11.4801 6.89593 11.7346 7.00134 12 7.00134C12.2654 7.00134 12.5199 6.89593 12.7075 6.70829ZM19.2925 25.2933L17 27.587V20.0008C17 19.7356 16.8946 19.4812 16.7071 19.2937C16.5196 19.1061 16.2652 19.0008 16 19.0008C15.7348 19.0008 15.4804 19.1061 15.2929 19.2937C15.1054 19.4812 15 19.7356 15 20.0008V27.587L12.7075 25.2933C12.5199 25.1056 12.2654 25.0002 12 25.0002C11.7346 25.0002 11.4801 25.1056 11.2925 25.2933C11.1049 25.4809 10.9994 25.7354 10.9994 26.0008C10.9994 26.2661 11.1049 26.5206 11.2925 26.7083L15.2925 30.7083C15.3854 30.8013 15.4957 30.875 15.6171 30.9253C15.7385 30.9757 15.8686 31.0016 16 31.0016C16.1314 31.0016 16.2615 30.9757 16.3829 30.9253C16.5043 30.875 16.6146 30.8013 16.7075 30.7083L20.7075 26.7083C20.8951 26.5206 21.0006 26.2661 21.0006 26.0008C21.0006 25.7354 20.8951 25.4809 20.7075 25.2933C20.5199 25.1056 20.2654 25.0002 20 25.0002C19.7346 25.0002 19.4801 25.1056 19.2925 25.2933Z" fill="black"/>
      </svg>
    </symbol>

    <!--Close Selection Icon-->
    <symbol id="icon-close-selection" viewBox="0 0 33 33">
      <svg width="33" height="33" viewBox="0 0 33 33" fill="none" xmlns="http://www.w3.org/2000/svg">
      <path d="M28.4458 16.9395C28.4458 17.2047 28.3404 17.459 28.1529 17.6466C27.9654 17.8341 27.711 17.9395 27.4458 17.9395H5.4458C5.18058 17.9395 4.92623 17.8341 4.73869 17.6466C4.55116 17.459 4.4458 17.2047 4.4458 16.9395C4.4458 16.6742 4.55116 16.4199 4.73869 16.2323C4.92623 16.0448 5.18058 15.9395 5.4458 15.9395H27.4458C27.711 15.9395 27.9654 16.0448 28.1529 16.2323C28.3404 16.4199 28.4458 16.6742 28.4458 16.9395ZM15.7383 13.647C15.8312 13.7399 15.9415 13.8137 16.0629 13.864C16.1843 13.9143 16.3144 13.9402 16.4458 13.9402C16.5772 13.9402 16.7073 13.9143 16.8287 13.864C16.9501 13.8137 17.0604 13.7399 17.1533 13.647L21.1533 9.64695C21.3409 9.45931 21.4464 9.20482 21.4464 8.93945C21.4464 8.67409 21.3409 8.41959 21.1533 8.23195C20.9657 8.04431 20.7112 7.9389 20.4458 7.9389C20.1804 7.9389 19.9259 8.04431 19.7383 8.23195L17.4458 10.5257V2.93945C17.4458 2.67424 17.3404 2.41988 17.1529 2.23235C16.9654 2.04481 16.711 1.93945 16.4458 1.93945C16.1806 1.93945 15.9262 2.04481 15.7387 2.23235C15.5512 2.41988 15.4458 2.67424 15.4458 2.93945V10.5257L13.1533 8.23195C13.0604 8.13904 12.9501 8.06534 12.8287 8.01506C12.7073 7.96478 12.5772 7.9389 12.4458 7.9389C12.1804 7.9389 11.9259 8.04431 11.7383 8.23195C11.6454 8.32486 11.5717 8.43516 11.5214 8.55656C11.4711 8.67795 11.4452 8.80806 11.4452 8.93945C11.4452 9.20482 11.5507 9.45931 11.7383 9.64695L15.7383 13.647ZM17.1533 20.232C17.0604 20.139 16.9501 20.0652 16.8287 20.0149C16.7073 19.9646 16.5772 19.9387 16.4458 19.9387C16.3144 19.9387 16.1843 19.9646 16.0629 20.0149C15.9415 20.0652 15.8312 20.139 15.7383 20.232L11.7383 24.232C11.6454 24.3249 11.5717 24.4352 11.5214 24.5566C11.4711 24.6779 11.4452 24.8081 11.4452 24.9395C11.4452 25.0708 11.4711 25.201 11.5214 25.3223C11.5717 25.4437 11.6454 25.554 11.7383 25.647C11.9259 25.8346 12.1804 25.94 12.4458 25.94C12.5772 25.94 12.7073 25.9141 12.8287 25.8638C12.9501 25.8136 13.0604 25.7399 13.1533 25.647L15.4458 23.3532V30.9395C15.4458 31.2047 15.5512 31.459 15.7387 31.6466C15.9262 31.8341 16.1806 31.9395 16.4458 31.9395C16.711 31.9395 16.9654 31.8341 17.1529 31.6466C17.3404 31.459 17.4458 31.2047 17.4458 30.9395V23.3532L19.7383 25.647C19.8312 25.7399 19.9415 25.8136 20.0629 25.8638C20.1843 25.9141 20.3144 25.94 20.4458 25.94C20.5772 25.94 20.7073 25.9141 20.8287 25.8638C20.9501 25.8136 21.0604 25.7399 21.1533 25.647C21.2462 25.554 21.3199 25.4437 21.3702 25.3223C21.4205 25.201 21.4464 25.0708 21.4464 24.9395C21.4464 24.8081 21.4205 24.6779 21.3702 24.5566C21.3199 24.4352 21.2462 24.3249 21.1533 24.232L17.1533 20.232Z" fill="black"/>
      </svg>
    </symbol>

    <!--Friends List-->
    <symbol id="icon-friends-list" viewBox="0 0 30 23">
      <svg width="30" height="23" viewBox="0 0 30 23" fill="none" xmlns="http://www.w3.org/2000/svg">
      <path d="M29.6 12.8C29.495 12.8788 29.3754 12.9361 29.2482 12.9687C29.121 13.0013 28.9886 13.0085 28.8586 12.99C28.7286 12.9714 28.6035 12.9274 28.4905 12.8605C28.3775 12.7936 28.2788 12.7051 28.2 12.6C27.5973 11.7898 26.8127 11.1325 25.9096 10.6809C25.0064 10.2293 24.0098 9.9961 23 10C22.8034 10 22.6111 9.94201 22.4472 9.83329C22.2834 9.72457 22.1552 9.56995 22.0788 9.38877C22.0269 9.26574 22.0001 9.13356 22.0001 9.00002C22.0001 8.86648 22.0269 8.7343 22.0788 8.61127C22.1552 8.43009 22.2834 8.27547 22.4472 8.16675C22.6111 8.05803 22.8034 8.00004 23 8.00002C23.5611 7.99997 24.1109 7.84257 24.5871 7.5457C25.0632 7.24882 25.4465 6.82438 25.6935 6.32057C25.9405 5.81676 26.0412 5.25379 25.9843 4.6956C25.9273 4.1374 25.715 3.60636 25.3714 3.1628C25.0278 2.71923 24.5666 2.38092 24.0404 2.18629C23.5141 1.99166 22.9439 1.94851 22.3943 2.06175C21.8448 2.17499 21.338 2.44007 20.9315 2.82688C20.5251 3.2137 20.2353 3.70675 20.095 4.25002C20.0622 4.37724 20.0046 4.49674 19.9256 4.60171C19.8466 4.70668 19.7477 4.79506 19.6345 4.86181C19.5213 4.92855 19.3961 4.97235 19.266 4.9907C19.1359 5.00905 19.0035 5.0016 18.8763 4.96877C18.749 4.93594 18.6295 4.87837 18.5246 4.79936C18.4196 4.72034 18.3312 4.62142 18.2645 4.50825C18.1977 4.39508 18.1539 4.26987 18.1356 4.13977C18.1172 4.00968 18.1247 3.87724 18.1575 3.75002C18.3522 2.99666 18.72 2.29914 19.2318 1.71296C19.7435 1.12678 20.3849 0.668111 21.1051 0.373458C21.8252 0.0788045 22.6042 -0.0437029 23.3801 0.0156828C24.1559 0.0750684 24.9072 0.314708 25.5741 0.715534C26.241 1.11636 26.8052 1.66731 27.2217 2.32454C27.6383 2.98178 27.8957 3.72715 27.9734 4.50137C28.0512 5.27558 27.9472 6.05726 27.6697 6.78421C27.3922 7.51115 26.9489 8.16331 26.375 8.68877C27.7348 9.27752 28.9168 10.2118 29.8038 11.3988C29.8826 11.5041 29.9398 11.6239 29.9722 11.7514C30.0046 11.8789 30.0115 12.0115 29.9926 12.1417C29.9737 12.2718 29.9293 12.397 29.8619 12.51C29.7945 12.6229 29.7055 12.7215 29.6 12.8ZM22.865 20.5C22.9374 20.6138 22.986 20.7411 23.0078 20.8742C23.0297 21.0073 23.0245 21.1434 22.9924 21.2744C22.9603 21.4054 22.902 21.5286 22.8211 21.6365C22.7402 21.7444 22.6383 21.8348 22.5215 21.9023C22.4048 21.9698 22.2756 22.0129 22.1417 22.0292C22.0078 22.0455 21.872 22.0345 21.7425 21.9969C21.6129 21.9593 21.4924 21.8959 21.388 21.8105C21.2836 21.7251 21.1975 21.6195 21.135 21.5C20.5051 20.4334 19.6079 19.5494 18.532 18.9353C17.4562 18.3212 16.2388 17.9982 15 17.9982C13.7612 17.9982 12.5438 18.3212 11.468 18.9353C10.3921 19.5494 9.49496 20.4334 8.86501 21.5C8.8025 21.6195 8.71646 21.7251 8.61206 21.8105C8.50767 21.8959 8.38708 21.9593 8.25755 21.9969C8.12802 22.0345 7.99223 22.0455 7.85835 22.0292C7.72446 22.0129 7.59525 21.9698 7.47848 21.9023C7.36172 21.8348 7.25981 21.7444 7.1789 21.6365C7.09798 21.5286 7.03973 21.4054 7.00764 21.2744C6.97556 21.1434 6.9703 21.0073 6.99219 20.8742C7.01408 20.7411 7.06266 20.6138 7.13501 20.5C8.10451 18.8342 9.58276 17.5234 11.3525 16.76C10.3567 15.9976 9.6248 14.9422 9.25976 13.7423C8.89473 12.5424 8.91489 11.2583 9.31741 10.0704C9.71993 8.88254 10.4846 7.85068 11.5038 7.11986C12.5231 6.38905 13.7458 5.99601 15 5.99601C16.2542 5.99601 17.4769 6.38905 18.4962 7.11986C19.5155 7.85068 20.2801 8.88254 20.6826 10.0704C21.0851 11.2583 21.1053 12.5424 20.7403 13.7423C20.3752 14.9422 19.6434 15.9976 18.6475 16.76C20.4173 17.5234 21.8955 18.8342 22.865 20.5ZM15 16C15.7911 16 16.5645 15.7654 17.2223 15.3259C17.8801 14.8864 18.3928 14.2617 18.6955 13.5308C18.9983 12.7998 19.0775 11.9956 18.9232 11.2197C18.7688 10.4437 18.3878 9.731 17.8284 9.17159C17.269 8.61218 16.5563 8.23122 15.7804 8.07688C15.0045 7.92254 14.2002 8.00175 13.4693 8.3045C12.7384 8.60725 12.1137 9.11994 11.6741 9.77774C11.2346 10.4355 11 11.2089 11 12C11 13.0609 11.4214 14.0783 12.1716 14.8284C12.9217 15.5786 13.9391 16 15 16ZM8.00001 9.00002C8.00001 8.7348 7.89466 8.48045 7.70712 8.29291C7.51958 8.10538 7.26523 8.00002 7.00001 8.00002C6.43892 7.99997 5.88909 7.84257 5.41297 7.5457C4.93686 7.24882 4.55354 6.82438 4.30655 6.32057C4.05957 5.81676 3.95882 5.25379 4.01576 4.6956C4.0727 4.1374 4.28503 3.60636 4.62865 3.1628C4.97226 2.71923 5.43339 2.38092 5.95964 2.18629C6.48589 1.99166 7.05618 1.94851 7.60572 2.06175C8.15527 2.17499 8.66204 2.44007 9.06848 2.82688C9.47492 3.2137 9.76474 3.70675 9.90501 4.25002C9.97132 4.50695 10.137 4.72701 10.3655 4.86181C10.5941 4.9966 10.8668 5.03507 11.1238 4.96877C11.3807 4.90247 11.6008 4.73681 11.7355 4.50825C11.8703 4.27969 11.9088 4.00695 11.8425 3.75002C11.6478 2.99666 11.28 2.29914 10.7683 1.71296C10.2566 1.12678 9.61512 0.668111 8.89495 0.373458C8.17479 0.0788045 7.3958 -0.0437029 6.61996 0.0156828C5.84412 0.0750684 5.09285 0.314708 4.42592 0.715534C3.75899 1.11636 3.19482 1.66731 2.77829 2.32454C2.36176 2.98178 2.10437 3.72715 2.0266 4.50137C1.94883 5.27558 2.05283 6.05726 2.33032 6.78421C2.60781 7.51115 3.05113 8.16331 3.62501 8.68877C2.26662 9.27807 1.08591 10.2123 0.200013 11.3988C0.0407174 11.6109 -0.0277685 11.8777 0.00962155 12.1404C0.0470116 12.403 0.187215 12.6401 0.399388 12.7994C0.611561 12.9587 0.878324 13.0272 1.14099 12.9898C1.40366 12.9524 1.64072 12.8122 1.80001 12.6C2.40275 11.7898 3.18728 11.1325 4.09046 10.6809C4.99364 10.2293 5.99023 9.9961 7.00001 10C7.26523 10 7.51958 9.89466 7.70712 9.70713C7.89466 9.51959 8.00001 9.26524 8.00001 9.00002Z" fill="white"/>
      </svg>
    </symbol>

    <!--Playlist-->
    <symbol id="icon-playlist" viewBox="0 0 27 22">
      <svg width="27" height="22" viewBox="0 0 27 22" fill="none" xmlns="http://www.w3.org/2000/svg">
      <path d="M0 1C0 0.734784 0.105357 0.48043 0.292893 0.292893C0.48043 0.105357 0.734784 0 1 0H23C23.2652 0 23.5196 0.105357 23.7071 0.292893C23.8946 0.48043 24 0.734784 24 1C24 1.26522 23.8946 1.51957 23.7071 1.70711C23.5196 1.89464 23.2652 2 23 2H1C0.734784 2 0.48043 1.89464 0.292893 1.70711C0.105357 1.51957 0 1.26522 0 1ZM1 10H16C16.2652 10 16.5196 9.89464 16.7071 9.70711C16.8946 9.51957 17 9.26522 17 9C17 8.73478 16.8946 8.48043 16.7071 8.29289C16.5196 8.10536 16.2652 8 16 8H1C0.734784 8 0.48043 8.10536 0.292893 8.29289C0.105357 8.48043 0 8.73478 0 9C0 9.26522 0.105357 9.51957 0.292893 9.70711C0.48043 9.89464 0.734784 10 1 10ZM10 16H1C0.734784 16 0.48043 16.1054 0.292893 16.2929C0.105357 16.4804 0 16.7348 0 17C0 17.2652 0.105357 17.5196 0.292893 17.7071C0.48043 17.8946 0.734784 18 1 18H10C10.2652 18 10.5196 17.8946 10.7071 17.7071C10.8946 17.5196 11 17.2652 11 17C11 16.7348 10.8946 16.4804 10.7071 16.2929C10.5196 16.1054 10.2652 16 10 16ZM26.9575 8.7875C26.9197 8.91378 26.8574 9.03135 26.774 9.13345C26.6907 9.23555 26.588 9.32016 26.4718 9.38243C26.3557 9.44469 26.2283 9.48338 26.0972 9.49626C25.966 9.50915 25.8336 9.49597 25.7075 9.4575L22 8.34375V17C22.0014 17.8823 21.7115 18.7405 21.1753 19.4412C20.6391 20.1419 19.8865 20.646 19.0345 20.8752C18.1824 21.1044 17.2785 21.0459 16.4631 20.7088C15.6477 20.3717 14.9664 19.7748 14.525 19.0108C14.0835 18.2468 13.9066 17.3585 14.0218 16.4837C14.1369 15.6089 14.5376 14.7966 15.1617 14.1728C15.7858 13.5491 16.5983 13.1488 17.4732 13.0342C18.348 12.9195 19.2363 13.0969 20 13.5387V7C20 6.84412 20.0365 6.69041 20.1065 6.55113C20.1766 6.41186 20.2782 6.29088 20.4032 6.19786C20.5283 6.10483 20.6734 6.04234 20.827 6.01537C20.9805 5.98839 21.1382 5.99768 21.2875 6.0425L26.2875 7.5425C26.5414 7.61881 26.7546 7.79283 26.8802 8.02629C27.0059 8.25975 27.0337 8.53356 26.9575 8.7875ZM20 17C20 16.6044 19.8827 16.2178 19.6629 15.8889C19.4432 15.56 19.1308 15.3036 18.7654 15.1522C18.3999 15.0009 17.9978 14.9613 17.6098 15.0384C17.2219 15.1156 16.8655 15.3061 16.5858 15.5858C16.3061 15.8655 16.1156 16.2219 16.0384 16.6098C15.9613 16.9978 16.0009 17.3999 16.1522 17.7654C16.3036 18.1308 16.56 18.4432 16.8889 18.6629C17.2178 18.8827 17.6044 19 18 19C18.5304 19 19.0391 18.7893 19.4142 18.4142C19.7893 18.0391 20 17.5304 20 17Z" fill="white"/>
      </svg>
    </symbol>

    <!--Music Note (had to set the fill manually to white here, idk why)-->
    <symbol id="icon-music-note" viewBox="0 0 33 33">
      <svg width="33" height="33" viewBox="0 0 33 33" fill="white" xmlns="http://www.w3.org/2000/svg">
      <path d="M27.1015 3.80372C26.9817 3.71038 26.8422 3.64555 26.6936 3.61415C26.545 3.58274 26.3913 3.58559 26.244 3.62247L10.244 7.62247C10.0276 7.67655 9.83556 7.80138 9.69831 7.97713C9.56106 8.15289 9.48649 8.36947 9.48646 8.59247V22.3525C8.65225 21.7951 7.6557 21.5325 6.65514 21.6063C5.65458 21.6802 4.7074 22.0863 3.96409 22.7602C3.22078 23.434 2.72397 24.3369 2.55259 25.3255C2.38122 26.314 2.54511 27.3315 3.01822 28.2162C3.49134 29.1009 4.24654 29.8021 5.16385 30.2085C6.08115 30.6149 7.10795 30.703 8.08109 30.459C9.05424 30.2149 9.91792 29.6527 10.5349 28.8615C11.1519 28.0704 11.4868 27.0958 11.4865 26.0925V9.37372L25.4865 5.87372V18.3525C24.6522 17.7951 23.6557 17.5325 22.6551 17.6063C21.6546 17.6802 20.7074 18.0863 19.9641 18.7602C19.2208 19.434 18.724 20.3369 18.5526 21.3255C18.3812 22.314 18.5451 23.3315 19.0182 24.2162C19.4913 25.1009 20.2465 25.8021 21.1638 26.2085C22.0812 26.6149 23.1079 26.703 24.0811 26.459C25.0542 26.2149 25.9179 25.6527 26.5349 24.8615C27.1519 24.0704 27.4868 23.0958 27.4865 22.0925V4.59247C27.4865 4.44038 27.4518 4.29028 27.3851 4.1536C27.3184 4.01692 27.2214 3.89726 27.1015 3.80372ZM6.98646 28.5925C6.492 28.5925 6.00865 28.4458 5.59753 28.1711C5.18641 27.8964 4.86598 27.506 4.67676 27.0492C4.48754 26.5924 4.43803 26.0897 4.53449 25.6047C4.63096 25.1198 4.86906 24.6743 5.21869 24.3247C5.56832 23.9751 6.01378 23.737 6.49873 23.6405C6.98368 23.544 7.48635 23.5936 7.94316 23.7828C8.39998 23.972 8.79043 24.2924 9.06513 24.7035C9.33983 25.1147 9.48646 25.598 9.48646 26.0925C9.48646 26.7555 9.22306 27.3914 8.75422 27.8602C8.28538 28.3291 7.6495 28.5925 6.98646 28.5925ZM22.9865 24.5925C22.492 24.5925 22.0087 24.4458 21.5975 24.1711C21.1864 23.8964 20.866 23.506 20.6768 23.0492C20.4875 22.5924 20.438 22.0897 20.5345 21.6047C20.631 21.1198 20.8691 20.6743 21.2187 20.3247C21.5683 19.9751 22.0138 19.737 22.4987 19.6405C22.9837 19.544 23.4863 19.5936 23.9432 19.7828C24.4 19.972 24.7904 20.2924 25.0651 20.7035C25.3398 21.1147 25.4865 21.598 25.4865 22.0925C25.4865 22.4208 25.4218 22.7459 25.2962 23.0492C25.1705 23.3525 24.9864 23.6281 24.7542 23.8602C24.5221 24.0924 24.2465 24.2765 23.9432 24.4022C23.6399 24.5278 23.3148 24.5925 22.9865 24.5925Z"/>
      </svg>
    </symbol>

    <!--Pencil-->
    <symbol id="icon-pencil" viewBox="0 0 33 33">
      <svg width="33" height="33" viewBox="0 0 33 33" fill="white" xmlns="http://www.w3.org/2000/svg">
      <path d="M28.9002 9.76375L23.3152 4.1775C23.1295 3.99174 22.909 3.84438 22.6663 3.74384C22.4236 3.6433 22.1635 3.59155 21.9008 3.59155C21.6382 3.59155 21.378 3.6433 21.1354 3.74384C20.8927 3.84438 20.6722 3.99174 20.4865 4.1775L5.07271 19.5925C4.88618 19.7775 4.7383 19.9978 4.63766 20.2405C4.53702 20.4832 4.48562 20.7435 4.48646 21.0063V26.5925C4.48646 27.1229 4.69717 27.6316 5.07225 28.0067C5.44732 28.3818 5.95603 28.5925 6.48646 28.5925H12.0727C12.3355 28.5933 12.5957 28.5419 12.8384 28.4413C13.0811 28.3407 13.3014 28.1928 13.4865 28.0063L28.9002 12.5925C29.086 12.4068 29.2333 12.1863 29.3339 11.9436C29.4344 11.7009 29.4862 11.4408 29.4862 11.1781C29.4862 10.9154 29.4344 10.6553 29.3339 10.4127C29.2333 10.17 29.086 9.94947 28.9002 9.76375ZM6.90021 20.5925L17.4865 10.0063L19.5727 12.0925L8.98646 22.6775L6.90021 20.5925ZM6.48646 23.0063L10.0727 26.5925H6.48646V23.0063ZM12.4865 26.1788L10.4002 24.0925L20.9865 13.5063L23.0727 15.5925L12.4865 26.1788ZM24.4865 14.1788L18.9002 8.5925L21.9002 5.5925L27.4865 11.1775L24.4865 14.1788Z" />
      </svg>
    </symbol>
  </defs>
</svg>