<svg xmlns="http://www.w3.org/2000/svg">
  <defs>
    <!--Heart-->
    <symbol id="icon-heart" viewBox="0 0 28 24">
      <svg width="28" height="24" viewBox="0 0 28 24" fill="none" xmlns="http://www.w3.org/2000/svg">
      <path d="M20.25 0C17.6688 0 15.4088 1.11 14 2.98625C12.5912 1.11 10.3312 0 7.75 0C5.69528 0.00231592 3.72539 0.819575 2.27248 2.27248C0.819575 3.72539 0.00231592 5.69528 0 7.75C0 16.5 12.9737 23.5825 13.5262 23.875C13.6719 23.9533 13.8346 23.9943 14 23.9943C14.1654 23.9943 14.3281 23.9533 14.4737 23.875C15.0262 23.5825 28 16.5 28 7.75C27.9977 5.69528 27.1804 3.72539 25.7275 2.27248C24.2746 0.819575 22.3047 0.00231592 20.25 0ZM14 21.85C11.7175 20.52 2 14.4612 2 7.75C2.00198 6.22561 2.60842 4.76423 3.68633 3.68633C4.76423 2.60842 6.22561 2.00198 7.75 2C10.1813 2 12.2225 3.295 13.075 5.375C13.1503 5.55841 13.2785 5.71528 13.4432 5.82569C13.6079 5.93609 13.8017 5.99503 14 5.99503C14.1983 5.99503 14.3921 5.93609 14.5568 5.82569C14.7215 5.71528 14.8497 5.55841 14.925 5.375C15.7775 3.29125 17.8187 2 20.25 2C21.7744 2.00198 23.2358 2.60842 24.3137 3.68633C25.3916 4.76423 25.998 6.22561 26 7.75C26 14.4513 16.28 20.5188 14 21.85Z" fill="white"/>
      </svg>
    </symbol>

    <!--General List-->
    <symbol id="icon-general-list" viewBox="0 0 25 19">
      <svg width="25" height="19" viewBox="0 0 25 19" fill="none" xmlns="http://www.w3.org/2000/svg">
      <path d="M7.45386 1.79749C7.45386 1.53227 7.55921 1.27792 7.74675 1.09038C7.93429 0.902842 8.18864 0.797485 8.45386 0.797485H23.4539C23.7191 0.797485 23.9734 0.902842 24.161 1.09038C24.3485 1.27792 24.4539 1.53227 24.4539 1.79749C24.4539 2.0627 24.3485 2.31706 24.161 2.50459C23.9734 2.69213 23.7191 2.79749 23.4539 2.79749H8.45386C8.18864 2.79749 7.93429 2.69213 7.74675 2.50459C7.55921 2.31706 7.45386 2.0627 7.45386 1.79749ZM23.4539 8.79749H8.45386C8.18864 8.79749 7.93429 8.90284 7.74675 9.09038C7.55921 9.27792 7.45386 9.53227 7.45386 9.79749C7.45386 10.0627 7.55921 10.3171 7.74675 10.5046C7.93429 10.6921 8.18864 10.7975 8.45386 10.7975H23.4539C23.7191 10.7975 23.9734 10.6921 24.161 10.5046C24.3485 10.3171 24.4539 10.0627 24.4539 9.79749C24.4539 9.53227 24.3485 9.27792 24.161 9.09038C23.9734 8.90284 23.7191 8.79749 23.4539 8.79749ZM23.4539 16.7975H8.45386C8.18864 16.7975 7.93429 16.9028 7.74675 17.0904C7.55921 17.2779 7.45386 17.5323 7.45386 17.7975C7.45386 18.0627 7.55921 18.3171 7.74675 18.5046C7.93429 18.6921 8.18864 18.7975 8.45386 18.7975H23.4539C23.7191 18.7975 23.9734 18.6921 24.161 18.5046C24.3485 18.3171 24.4539 18.0627 24.4539 17.7975C24.4539 17.5323 24.3485 17.2779 24.161 17.0904C23.9734 16.9028 23.7191 16.7975 23.4539 16.7975ZM3.45386 0.797485H1.45386C1.18864 0.797485 0.934287 0.902842 0.746751 1.09038C0.559214 1.27792 0.453857 1.53227 0.453857 1.79749C0.453857 2.0627 0.559214 2.31706 0.746751 2.50459C0.934287 2.69213 1.18864 2.79749 1.45386 2.79749H3.45386C3.71907 2.79749 3.97343 2.69213 4.16096 2.50459C4.3485 2.31706 4.45386 2.0627 4.45386 1.79749C4.45386 1.53227 4.3485 1.27792 4.16096 1.09038C3.97343 0.902842 3.71907 0.797485 3.45386 0.797485ZM3.45386 8.79749H1.45386C1.18864 8.79749 0.934287 8.90284 0.746751 9.09038C0.559214 9.27792 0.453857 9.53227 0.453857 9.79749C0.453857 10.0627 0.559214 10.3171 0.746751 10.5046C0.934287 10.6921 1.18864 10.7975 1.45386 10.7975H3.45386C3.71907 10.7975 3.97343 10.6921 4.16096 10.5046C4.3485 10.3171 4.45386 10.0627 4.45386 9.79749C4.45386 9.53227 4.3485 9.27792 4.16096 9.09038C3.97343 8.90284 3.71907 8.79749 3.45386 8.79749ZM3.45386 16.7975H1.45386C1.18864 16.7975 0.934287 16.9028 0.746751 17.0904C0.559214 17.2779 0.453857 17.5323 0.453857 17.7975C0.453857 18.0627 0.559214 18.3171 0.746751 18.5046C0.934287 18.6921 1.18864 18.7975 1.45386 18.7975H3.45386C3.71907 18.7975 3.97343 18.6921 4.16096 18.5046C4.3485 18.3171 4.45386 18.0627 4.45386 17.7975C4.45386 17.5323 4.3485 17.2779 4.16096 17.0904C3.97343 16.9028 3.71907 16.7975 3.45386 16.7975Z" fill="white"/>
      </svg>
    </symbol>

    <!--Friends List-->
    <symbol id="icon-friends-list" viewBox="0 0 30 23">
      <svg width="30" height="23" viewBox="0 0 30 23" fill="none" xmlns="http://www.w3.org/2000/svg">
      <path d="M29.6 12.8C29.495 12.8788 29.3754 12.9361 29.2482 12.9687C29.121 13.0013 28.9886 13.0085 28.8586 12.99C28.7286 12.9714 28.6035 12.9274 28.4905 12.8605C28.3775 12.7936 28.2788 12.7051 28.2 12.6C27.5973 11.7898 26.8127 11.1325 25.9096 10.6809C25.0064 10.2293 24.0098 9.9961 23 10C22.8034 10 22.6111 9.94201 22.4472 9.83329C22.2834 9.72457 22.1552 9.56995 22.0788 9.38877C22.0269 9.26574 22.0001 9.13356 22.0001 9.00002C22.0001 8.86648 22.0269 8.7343 22.0788 8.61127C22.1552 8.43009 22.2834 8.27547 22.4472 8.16675C22.6111 8.05803 22.8034 8.00004 23 8.00002C23.5611 7.99997 24.1109 7.84257 24.5871 7.5457C25.0632 7.24882 25.4465 6.82438 25.6935 6.32057C25.9405 5.81676 26.0412 5.25379 25.9843 4.6956C25.9273 4.1374 25.715 3.60636 25.3714 3.1628C25.0278 2.71923 24.5666 2.38092 24.0404 2.18629C23.5141 1.99166 22.9439 1.94851 22.3943 2.06175C21.8448 2.17499 21.338 2.44007 20.9315 2.82688C20.5251 3.2137 20.2353 3.70675 20.095 4.25002C20.0622 4.37724 20.0046 4.49674 19.9256 4.60171C19.8466 4.70668 19.7477 4.79506 19.6345 4.86181C19.5213 4.92855 19.3961 4.97235 19.266 4.9907C19.1359 5.00905 19.0035 5.0016 18.8763 4.96877C18.749 4.93594 18.6295 4.87837 18.5246 4.79936C18.4196 4.72034 18.3312 4.62142 18.2645 4.50825C18.1977 4.39508 18.1539 4.26987 18.1356 4.13977C18.1172 4.00968 18.1247 3.87724 18.1575 3.75002C18.3522 2.99666 18.72 2.29914 19.2318 1.71296C19.7435 1.12678 20.3849 0.668111 21.1051 0.373458C21.8252 0.0788045 22.6042 -0.0437029 23.3801 0.0156828C24.1559 0.0750684 24.9072 0.314708 25.5741 0.715534C26.241 1.11636 26.8052 1.66731 27.2217 2.32454C27.6383 2.98178 27.8957 3.72715 27.9734 4.50137C28.0512 5.27558 27.9472 6.05726 27.6697 6.78421C27.3922 7.51115 26.9489 8.16331 26.375 8.68877C27.7348 9.27752 28.9168 10.2118 29.8038 11.3988C29.8826 11.5041 29.9398 11.6239 29.9722 11.7514C30.0046 11.8789 30.0115 12.0115 29.9926 12.1417C29.9737 12.2718 29.9293 12.397 29.8619 12.51C29.7945 12.6229 29.7055 12.7215 29.6 12.8ZM22.865 20.5C22.9374 20.6138 22.986 20.7411 23.0078 20.8742C23.0297 21.0073 23.0245 21.1434 22.9924 21.2744C22.9603 21.4054 22.902 21.5286 22.8211 21.6365C22.7402 21.7444 22.6383 21.8348 22.5215 21.9023C22.4048 21.9698 22.2756 22.0129 22.1417 22.0292C22.0078 22.0455 21.872 22.0345 21.7425 21.9969C21.6129 21.9593 21.4924 21.8959 21.388 21.8105C21.2836 21.7251 21.1975 21.6195 21.135 21.5C20.5051 20.4334 19.6079 19.5494 18.532 18.9353C17.4562 18.3212 16.2388 17.9982 15 17.9982C13.7612 17.9982 12.5438 18.3212 11.468 18.9353C10.3921 19.5494 9.49496 20.4334 8.86501 21.5C8.8025 21.6195 8.71646 21.7251 8.61206 21.8105C8.50767 21.8959 8.38708 21.9593 8.25755 21.9969C8.12802 22.0345 7.99223 22.0455 7.85835 22.0292C7.72446 22.0129 7.59525 21.9698 7.47848 21.9023C7.36172 21.8348 7.25981 21.7444 7.1789 21.6365C7.09798 21.5286 7.03973 21.4054 7.00764 21.2744C6.97556 21.1434 6.9703 21.0073 6.99219 20.8742C7.01408 20.7411 7.06266 20.6138 7.13501 20.5C8.10451 18.8342 9.58276 17.5234 11.3525 16.76C10.3567 15.9976 9.6248 14.9422 9.25976 13.7423C8.89473 12.5424 8.91489 11.2583 9.31741 10.0704C9.71993 8.88254 10.4846 7.85068 11.5038 7.11986C12.5231 6.38905 13.7458 5.99601 15 5.99601C16.2542 5.99601 17.4769 6.38905 18.4962 7.11986C19.5155 7.85068 20.2801 8.88254 20.6826 10.0704C21.0851 11.2583 21.1053 12.5424 20.7403 13.7423C20.3752 14.9422 19.6434 15.9976 18.6475 16.76C20.4173 17.5234 21.8955 18.8342 22.865 20.5ZM15 16C15.7911 16 16.5645 15.7654 17.2223 15.3259C17.8801 14.8864 18.3928 14.2617 18.6955 13.5308C18.9983 12.7998 19.0775 11.9956 18.9232 11.2197C18.7688 10.4437 18.3878 9.731 17.8284 9.17159C17.269 8.61218 16.5563 8.23122 15.7804 8.07688C15.0045 7.92254 14.2002 8.00175 13.4693 8.3045C12.7384 8.60725 12.1137 9.11994 11.6741 9.77774C11.2346 10.4355 11 11.2089 11 12C11 13.0609 11.4214 14.0783 12.1716 14.8284C12.9217 15.5786 13.9391 16 15 16ZM8.00001 9.00002C8.00001 8.7348 7.89466 8.48045 7.70712 8.29291C7.51958 8.10538 7.26523 8.00002 7.00001 8.00002C6.43892 7.99997 5.88909 7.84257 5.41297 7.5457C4.93686 7.24882 4.55354 6.82438 4.30655 6.32057C4.05957 5.81676 3.95882 5.25379 4.01576 4.6956C4.0727 4.1374 4.28503 3.60636 4.62865 3.1628C4.97226 2.71923 5.43339 2.38092 5.95964 2.18629C6.48589 1.99166 7.05618 1.94851 7.60572 2.06175C8.15527 2.17499 8.66204 2.44007 9.06848 2.82688C9.47492 3.2137 9.76474 3.70675 9.90501 4.25002C9.97132 4.50695 10.137 4.72701 10.3655 4.86181C10.5941 4.9966 10.8668 5.03507 11.1238 4.96877C11.3807 4.90247 11.6008 4.73681 11.7355 4.50825C11.8703 4.27969 11.9088 4.00695 11.8425 3.75002C11.6478 2.99666 11.28 2.29914 10.7683 1.71296C10.2566 1.12678 9.61512 0.668111 8.89495 0.373458C8.17479 0.0788045 7.3958 -0.0437029 6.61996 0.0156828C5.84412 0.0750684 5.09285 0.314708 4.42592 0.715534C3.75899 1.11636 3.19482 1.66731 2.77829 2.32454C2.36176 2.98178 2.10437 3.72715 2.0266 4.50137C1.94883 5.27558 2.05283 6.05726 2.33032 6.78421C2.60781 7.51115 3.05113 8.16331 3.62501 8.68877C2.26662 9.27807 1.08591 10.2123 0.200013 11.3988C0.0407174 11.6109 -0.0277685 11.8777 0.00962155 12.1404C0.0470116 12.403 0.187215 12.6401 0.399388 12.7994C0.611561 12.9587 0.878324 13.0272 1.14099 12.9898C1.40366 12.9524 1.64072 12.8122 1.80001 12.6C2.40275 11.7898 3.18728 11.1325 4.09046 10.6809C4.99364 10.2293 5.99023 9.9961 7.00001 10C7.26523 10 7.51958 9.89466 7.70712 9.70713C7.89466 9.51959 8.00001 9.26524 8.00001 9.00002Z" fill="white"/>
      </svg>
    </symbol>

    <!--Playlist-->
    <symbol id="icon-playlist" viewBox="0 0 27 22">
      <svg width="27" height="22" viewBox="0 0 27 22" fill="none" xmlns="http://www.w3.org/2000/svg">
      <path d="M0 1C0 0.734784 0.105357 0.48043 0.292893 0.292893C0.48043 0.105357 0.734784 0 1 0H23C23.2652 0 23.5196 0.105357 23.7071 0.292893C23.8946 0.48043 24 0.734784 24 1C24 1.26522 23.8946 1.51957 23.7071 1.70711C23.5196 1.89464 23.2652 2 23 2H1C0.734784 2 0.48043 1.89464 0.292893 1.70711C0.105357 1.51957 0 1.26522 0 1ZM1 10H16C16.2652 10 16.5196 9.89464 16.7071 9.70711C16.8946 9.51957 17 9.26522 17 9C17 8.73478 16.8946 8.48043 16.7071 8.29289C16.5196 8.10536 16.2652 8 16 8H1C0.734784 8 0.48043 8.10536 0.292893 8.29289C0.105357 8.48043 0 8.73478 0 9C0 9.26522 0.105357 9.51957 0.292893 9.70711C0.48043 9.89464 0.734784 10 1 10ZM10 16H1C0.734784 16 0.48043 16.1054 0.292893 16.2929C0.105357 16.4804 0 16.7348 0 17C0 17.2652 0.105357 17.5196 0.292893 17.7071C0.48043 17.8946 0.734784 18 1 18H10C10.2652 18 10.5196 17.8946 10.7071 17.7071C10.8946 17.5196 11 17.2652 11 17C11 16.7348 10.8946 16.4804 10.7071 16.2929C10.5196 16.1054 10.2652 16 10 16ZM26.9575 8.7875C26.9197 8.91378 26.8574 9.03135 26.774 9.13345C26.6907 9.23555 26.588 9.32016 26.4718 9.38243C26.3557 9.44469 26.2283 9.48338 26.0972 9.49626C25.966 9.50915 25.8336 9.49597 25.7075 9.4575L22 8.34375V17C22.0014 17.8823 21.7115 18.7405 21.1753 19.4412C20.6391 20.1419 19.8865 20.646 19.0345 20.8752C18.1824 21.1044 17.2785 21.0459 16.4631 20.7088C15.6477 20.3717 14.9664 19.7748 14.525 19.0108C14.0835 18.2468 13.9066 17.3585 14.0218 16.4837C14.1369 15.6089 14.5376 14.7966 15.1617 14.1728C15.7858 13.5491 16.5983 13.1488 17.4732 13.0342C18.348 12.9195 19.2363 13.0969 20 13.5387V7C20 6.84412 20.0365 6.69041 20.1065 6.55113C20.1766 6.41186 20.2782 6.29088 20.4032 6.19786C20.5283 6.10483 20.6734 6.04234 20.827 6.01537C20.9805 5.98839 21.1382 5.99768 21.2875 6.0425L26.2875 7.5425C26.5414 7.61881 26.7546 7.79283 26.8802 8.02629C27.0059 8.25975 27.0337 8.53356 26.9575 8.7875ZM20 17C20 16.6044 19.8827 16.2178 19.6629 15.8889C19.4432 15.56 19.1308 15.3036 18.7654 15.1522C18.3999 15.0009 17.9978 14.9613 17.6098 15.0384C17.2219 15.1156 16.8655 15.3061 16.5858 15.5858C16.3061 15.8655 16.1156 16.2219 16.0384 16.6098C15.9613 16.9978 16.0009 17.3999 16.1522 17.7654C16.3036 18.1308 16.56 18.4432 16.8889 18.6629C17.2178 18.8827 17.6044 19 18 19C18.5304 19 19.0391 18.7893 19.4142 18.4142C19.7893 18.0391 20 17.5304 20 17Z" fill="white"/>
      </svg>
    </symbol>
  </defs>
</svg>