<svg width="30" height="23" viewBox="0 0 30 23" fill="none" xmlns="http://www.w3.org/2000/svg">
<path d="M29.6 12.8C29.495 12.8788 29.3754 12.9361 29.2482 12.9687C29.121 13.0013 28.9886 13.0085 28.8586 12.99C28.7286 12.9714 28.6035 12.9274 28.4905 12.8605C28.3775 12.7936 28.2788 12.7051 28.2 12.6C27.5973 11.7898 26.8127 11.1325 25.9096 10.6809C25.0064 10.2293 24.0098 9.9961 23 10C22.8034 10 22.6111 9.94201 22.4472 9.83329C22.2834 9.72457 22.1552 9.56995 22.0788 9.38877C22.0269 9.26574 22.0001 9.13356 22.0001 9.00002C22.0001 8.86648 22.0269 8.7343 22.0788 8.61127C22.1552 8.43009 22.2834 8.27547 22.4472 8.16675C22.6111 8.05803 22.8034 8.00004 23 8.00002C23.5611 7.99997 24.1109 7.84257 24.5871 7.5457C25.0632 7.24882 25.4465 6.82438 25.6935 6.32057C25.9405 5.81676 26.0412 5.25379 25.9843 4.6956C25.9273 4.1374 25.715 3.60636 25.3714 3.1628C25.0278 2.71923 24.5666 2.38092 24.0404 2.18629C23.5141 1.99166 22.9439 1.94851 22.3943 2.06175C21.8448 2.17499 21.338 2.44007 20.9315 2.82688C20.5251 3.2137 20.2353 3.70675 20.095 4.25002C20.0622 4.37724 20.0046 4.49674 19.9256 4.60171C19.8466 4.70668 19.7477 4.79506 19.6345 4.86181C19.5213 4.92855 19.3961 4.97235 19.266 4.9907C19.1359 5.00905 19.0035 5.0016 18.8763 4.96877C18.749 4.93594 18.6295 4.87837 18.5246 4.79936C18.4196 4.72034 18.3312 4.62142 18.2645 4.50825C18.1977 4.39508 18.1539 4.26987 18.1356 4.13977C18.1172 4.00968 18.1247 3.87724 18.1575 3.75002C18.3522 2.99666 18.72 2.29914 19.2318 1.71296C19.7435 1.12678 20.3849 0.668111 21.1051 0.373458C21.8252 0.0788045 22.6042 -0.0437029 23.3801 0.0156828C24.1559 0.0750684 24.9072 0.314708 25.5741 0.715534C26.241 1.11636 26.8052 1.66731 27.2217 2.32454C27.6383 2.98178 27.8957 3.72715 27.9734 4.50137C28.0512 5.27558 27.9472 6.05726 27.6697 6.78421C27.3922 7.51115 26.9489 8.16331 26.375 8.68877C27.7348 9.27752 28.9168 10.2118 29.8038 11.3988C29.8826 11.5041 29.9398 11.6239 29.9722 11.7514C30.0046 11.8789 30.0115 12.0115 29.9926 12.1417C29.9737 12.2718 29.9293 12.397 29.8619 12.51C29.7945 12.6229 29.7055 12.7215 29.6 12.8ZM22.865 20.5C22.9374 20.6138 22.986 20.7411 23.0078 20.8742C23.0297 21.0073 23.0245 21.1434 22.9924 21.2744C22.9603 21.4054 22.902 21.5286 22.8211 21.6365C22.7402 21.7444 22.6383 21.8348 22.5215 21.9023C22.4048 21.9698 22.2756 22.0129 22.1417 22.0292C22.0078 22.0455 21.872 22.0345 21.7425 21.9969C21.6129 21.9593 21.4924 21.8959 21.388 21.8105C21.2836 21.7251 21.1975 21.6195 21.135 21.5C20.5051 20.4334 19.6079 19.5494 18.532 18.9353C17.4562 18.3212 16.2388 17.9982 15 17.9982C13.7612 17.9982 12.5438 18.3212 11.468 18.9353C10.3921 19.5494 9.49496 20.4334 8.86501 21.5C8.8025 21.6195 8.71646 21.7251 8.61206 21.8105C8.50767 21.8959 8.38708 21.9593 8.25755 21.9969C8.12802 22.0345 7.99223 22.0455 7.85835 22.0292C7.72446 22.0129 7.59525 21.9698 7.47848 21.9023C7.36172 21.8348 7.25981 21.7444 7.1789 21.6365C7.09798 21.5286 7.03973 21.4054 7.00764 21.2744C6.97556 21.1434 6.9703 21.0073 6.99219 20.8742C7.01408 20.7411 7.06266 20.6138 7.13501 20.5C8.10451 18.8342 9.58276 17.5234 11.3525 16.76C10.3567 15.9976 9.6248 14.9422 9.25976 13.7423C8.89473 12.5424 8.91489 11.2583 9.31741 10.0704C9.71993 8.88254 10.4846 7.85068 11.5038 7.11986C12.5231 6.38905 13.7458 5.99601 15 5.99601C16.2542 5.99601 17.4769 6.38905 18.4962 7.11986C19.5155 7.85068 20.2801 8.88254 20.6826 10.0704C21.0851 11.2583 21.1053 12.5424 20.7403 13.7423C20.3752 14.9422 19.6434 15.9976 18.6475 16.76C20.4173 17.5234 21.8955 18.8342 22.865 20.5ZM15 16C15.7911 16 16.5645 15.7654 17.2223 15.3259C17.8801 14.8864 18.3928 14.2617 18.6955 13.5308C18.9983 12.7998 19.0775 11.9956 18.9232 11.2197C18.7688 10.4437 18.3878 9.731 17.8284 9.17159C17.269 8.61218 16.5563 8.23122 15.7804 8.07688C15.0045 7.92254 14.2002 8.00175 13.4693 8.3045C12.7384 8.60725 12.1137 9.11994 11.6741 9.77774C11.2346 10.4355 11 11.2089 11 12C11 13.0609 11.4214 14.0783 12.1716 14.8284C12.9217 15.5786 13.9391 16 15 16ZM8.00001 9.00002C8.00001 8.7348 7.89466 8.48045 7.70712 8.29291C7.51958 8.10538 7.26523 8.00002 7.00001 8.00002C6.43892 7.99997 5.88909 7.84257 5.41297 7.5457C4.93686 7.24882 4.55354 6.82438 4.30655 6.32057C4.05957 5.81676 3.95882 5.25379 4.01576 4.6956C4.0727 4.1374 4.28503 3.60636 4.62865 3.1628C4.97226 2.71923 5.43339 2.38092 5.95964 2.18629C6.48589 1.99166 7.05618 1.94851 7.60572 2.06175C8.15527 2.17499 8.66204 2.44007 9.06848 2.82688C9.47492 3.2137 9.76474 3.70675 9.90501 4.25002C9.97132 4.50695 10.137 4.72701 10.3655 4.86181C10.5941 4.9966 10.8668 5.03507 11.1238 4.96877C11.3807 4.90247 11.6008 4.73681 11.7355 4.50825C11.8703 4.27969 11.9088 4.00695 11.8425 3.75002C11.6478 2.99666 11.28 2.29914 10.7683 1.71296C10.2566 1.12678 9.61512 0.668111 8.89495 0.373458C8.17479 0.0788045 7.3958 -0.0437029 6.61996 0.0156828C5.84412 0.0750684 5.09285 0.314708 4.42592 0.715534C3.75899 1.11636 3.19482 1.66731 2.77829 2.32454C2.36176 2.98178 2.10437 3.72715 2.0266 4.50137C1.94883 5.27558 2.05283 6.05726 2.33032 6.78421C2.60781 7.51115 3.05113 8.16331 3.62501 8.68877C2.26662 9.27807 1.08591 10.2123 0.200013 11.3988C0.0407174 11.6109 -0.0277685 11.8777 0.00962155 12.1404C0.0470116 12.403 0.187215 12.6401 0.399388 12.7994C0.611561 12.9587 0.878324 13.0272 1.14099 12.9898C1.40366 12.9524 1.64072 12.8122 1.80001 12.6C2.40275 11.7898 3.18728 11.1325 4.09046 10.6809C4.99364 10.2293 5.99023 9.9961 7.00001 10C7.26523 10 7.51958 9.89466 7.70712 9.70713C7.89466 9.51959 8.00001 9.26524 8.00001 9.00002Z" fill="white"/>
</svg>
