<svg width="25" height="19" viewBox="0 0 25 19" fill="none" xmlns="http://www.w3.org/2000/svg">
<path d="M7.45386 1.79749C7.45386 1.53227 7.55921 1.27792 7.74675 1.09038C7.93429 0.902842 8.18864 0.797485 8.45386 0.797485H23.4539C23.7191 0.797485 23.9734 0.902842 24.161 1.09038C24.3485 1.27792 24.4539 1.53227 24.4539 1.79749C24.4539 2.0627 24.3485 2.31706 24.161 2.50459C23.9734 2.69213 23.7191 2.79749 23.4539 2.79749H8.45386C8.18864 2.79749 7.93429 2.69213 7.74675 2.50459C7.55921 2.31706 7.45386 2.0627 7.45386 1.79749ZM23.4539 8.79749H8.45386C8.18864 8.79749 7.93429 8.90284 7.74675 9.09038C7.55921 9.27792 7.45386 9.53227 7.45386 9.79749C7.45386 10.0627 7.55921 10.3171 7.74675 10.5046C7.93429 10.6921 8.18864 10.7975 8.45386 10.7975H23.4539C23.7191 10.7975 23.9734 10.6921 24.161 10.5046C24.3485 10.3171 24.4539 10.0627 24.4539 9.79749C24.4539 9.53227 24.3485 9.27792 24.161 9.09038C23.9734 8.90284 23.7191 8.79749 23.4539 8.79749ZM23.4539 16.7975H8.45386C8.18864 16.7975 7.93429 16.9028 7.74675 17.0904C7.55921 17.2779 7.45386 17.5323 7.45386 17.7975C7.45386 18.0627 7.55921 18.3171 7.74675 18.5046C7.93429 18.6921 8.18864 18.7975 8.45386 18.7975H23.4539C23.7191 18.7975 23.9734 18.6921 24.161 18.5046C24.3485 18.3171 24.4539 18.0627 24.4539 17.7975C24.4539 17.5323 24.3485 17.2779 24.161 17.0904C23.9734 16.9028 23.7191 16.7975 23.4539 16.7975ZM3.45386 0.797485H1.45386C1.18864 0.797485 0.934287 0.902842 0.746751 1.09038C0.559214 1.27792 0.453857 1.53227 0.453857 1.79749C0.453857 2.0627 0.559214 2.31706 0.746751 2.50459C0.934287 2.69213 1.18864 2.79749 1.45386 2.79749H3.45386C3.71907 2.79749 3.97343 2.69213 4.16096 2.50459C4.3485 2.31706 4.45386 2.0627 4.45386 1.79749C4.45386 1.53227 4.3485 1.27792 4.16096 1.09038C3.97343 0.902842 3.71907 0.797485 3.45386 0.797485ZM3.45386 8.79749H1.45386C1.18864 8.79749 0.934287 8.90284 0.746751 9.09038C0.559214 9.27792 0.453857 9.53227 0.453857 9.79749C0.453857 10.0627 0.559214 10.3171 0.746751 10.5046C0.934287 10.6921 1.18864 10.7975 1.45386 10.7975H3.45386C3.71907 10.7975 3.97343 10.6921 4.16096 10.5046C4.3485 10.3171 4.45386 10.0627 4.45386 9.79749C4.45386 9.53227 4.3485 9.27792 4.16096 9.09038C3.97343 8.90284 3.71907 8.79749 3.45386 8.79749ZM3.45386 16.7975H1.45386C1.18864 16.7975 0.934287 16.9028 0.746751 17.0904C0.559214 17.2779 0.453857 17.5323 0.453857 17.7975C0.453857 18.0627 0.559214 18.3171 0.746751 18.5046C0.934287 18.6921 1.18864 18.7975 1.45386 18.7975H3.45386C3.71907 18.7975 3.97343 18.6921 4.16096 18.5046C4.3485 18.3171 4.45386 18.0627 4.45386 17.7975C4.45386 17.5323 4.3485 17.2779 4.16096 17.0904C3.97343 16.9028 3.71907 16.7975 3.45386 16.7975Z" fill="white"/>
</svg>
