<svg width="33" height="33" viewBox="0 0 33 33" fill="none" xmlns="http://www.w3.org/2000/svg">
<path d="M27.1015 3.80372C26.9817 3.71038 26.8422 3.64555 26.6936 3.61415C26.545 3.58274 26.3913 3.58559 26.244 3.62247L10.244 7.62247C10.0276 7.67655 9.83556 7.80138 9.69831 7.97713C9.56106 8.15289 9.48649 8.36947 9.48646 8.59247V22.3525C8.65225 21.7951 7.6557 21.5325 6.65514 21.6063C5.65458 21.6802 4.7074 22.0863 3.96409 22.7602C3.22078 23.434 2.72397 24.3369 2.55259 25.3255C2.38122 26.314 2.54511 27.3315 3.01822 28.2162C3.49134 29.1009 4.24654 29.8021 5.16385 30.2085C6.08115 30.6149 7.10795 30.703 8.08109 30.459C9.05424 30.2149 9.91792 29.6527 10.5349 28.8615C11.1519 28.0704 11.4868 27.0958 11.4865 26.0925V9.37372L25.4865 5.87372V18.3525C24.6522 17.7951 23.6557 17.5325 22.6551 17.6063C21.6546 17.6802 20.7074 18.0863 19.9641 18.7602C19.2208 19.434 18.724 20.3369 18.5526 21.3255C18.3812 22.314 18.5451 23.3315 19.0182 24.2162C19.4913 25.1009 20.2465 25.8021 21.1638 26.2085C22.0812 26.6149 23.1079 26.703 24.0811 26.459C25.0542 26.2149 25.9179 25.6527 26.5349 24.8615C27.1519 24.0704 27.4868 23.0958 27.4865 22.0925V4.59247C27.4865 4.44038 27.4518 4.29028 27.3851 4.1536C27.3184 4.01692 27.2214 3.89726 27.1015 3.80372ZM6.98646 28.5925C6.492 28.5925 6.00865 28.4458 5.59753 28.1711C5.18641 27.8964 4.86598 27.506 4.67676 27.0492C4.48754 26.5924 4.43803 26.0897 4.53449 25.6047C4.63096 25.1198 4.86906 24.6743 5.21869 24.3247C5.56832 23.9751 6.01378 23.737 6.49873 23.6405C6.98368 23.544 7.48635 23.5936 7.94316 23.7828C8.39998 23.972 8.79043 24.2924 9.06513 24.7035C9.33983 25.1147 9.48646 25.598 9.48646 26.0925C9.48646 26.7555 9.22306 27.3914 8.75422 27.8602C8.28538 28.3291 7.6495 28.5925 6.98646 28.5925ZM22.9865 24.5925C22.492 24.5925 22.0087 24.4458 21.5975 24.1711C21.1864 23.8964 20.866 23.506 20.6768 23.0492C20.4875 22.5924 20.438 22.0897 20.5345 21.6047C20.631 21.1198 20.8691 20.6743 21.2187 20.3247C21.5683 19.9751 22.0138 19.737 22.4987 19.6405C22.9837 19.544 23.4863 19.5936 23.9432 19.7828C24.4 19.972 24.7904 20.2924 25.0651 20.7035C25.3398 21.1147 25.4865 21.598 25.4865 22.0925C25.4865 22.4208 25.4218 22.7459 25.2962 23.0492C25.1705 23.3525 24.9864 23.6281 24.7542 23.8602C24.5221 24.0924 24.2465 24.2765 23.9432 24.4022C23.6399 24.5278 23.3148 24.5925 22.9865 24.5925Z"/>
</svg>
