<svg width="33" height="33" viewBox="0 0 33 33" fill="none" xmlns="http://www.w3.org/2000/svg">
<path d="M28.9002 9.76375L23.3152 4.1775C23.1295 3.99174 22.909 3.84438 22.6663 3.74384C22.4236 3.6433 22.1635 3.59155 21.9008 3.59155C21.6382 3.59155 21.378 3.6433 21.1354 3.74384C20.8927 3.84438 20.6722 3.99174 20.4865 4.1775L5.07271 19.5925C4.88618 19.7775 4.7383 19.9978 4.63766 20.2405C4.53702 20.4832 4.48562 20.7435 4.48646 21.0063V26.5925C4.48646 27.1229 4.69717 27.6316 5.07225 28.0067C5.44732 28.3818 5.95603 28.5925 6.48646 28.5925H12.0727C12.3355 28.5933 12.5957 28.5419 12.8384 28.4413C13.0811 28.3407 13.3014 28.1928 13.4865 28.0063L28.9002 12.5925C29.086 12.4068 29.2333 12.1863 29.3339 11.9436C29.4344 11.7009 29.4862 11.4408 29.4862 11.1781C29.4862 10.9154 29.4344 10.6553 29.3339 10.4127C29.2333 10.17 29.086 9.94947 28.9002 9.76375ZM6.90021 20.5925L17.4865 10.0063L19.5727 12.0925L8.98646 22.6775L6.90021 20.5925ZM6.48646 23.0063L10.0727 26.5925H6.48646V23.0063ZM12.4865 26.1788L10.4002 24.0925L20.9865 13.5063L23.0727 15.5925L12.4865 26.1788ZM24.4865 14.1788L18.9002 8.5925L21.9002 5.5925L27.4865 11.1775L24.4865 14.1788Z" fill="black"/>
</svg>
