<svg width="27" height="22" viewBox="0 0 27 22" fill="none" xmlns="http://www.w3.org/2000/svg">
<path d="M0 1C0 0.734784 0.105357 0.48043 0.292893 0.292893C0.48043 0.105357 0.734784 0 1 0H23C23.2652 0 23.5196 0.105357 23.7071 0.292893C23.8946 0.48043 24 0.734784 24 1C24 1.26522 23.8946 1.51957 23.7071 1.70711C23.5196 1.89464 23.2652 2 23 2H1C0.734784 2 0.48043 1.89464 0.292893 1.70711C0.105357 1.51957 0 1.26522 0 1ZM1 10H16C16.2652 10 16.5196 9.89464 16.7071 9.70711C16.8946 9.51957 17 9.26522 17 9C17 8.73478 16.8946 8.48043 16.7071 8.29289C16.5196 8.10536 16.2652 8 16 8H1C0.734784 8 0.48043 8.10536 0.292893 8.29289C0.105357 8.48043 0 8.73478 0 9C0 9.26522 0.105357 9.51957 0.292893 9.70711C0.48043 9.89464 0.734784 10 1 10ZM10 16H1C0.734784 16 0.48043 16.1054 0.292893 16.2929C0.105357 16.4804 0 16.7348 0 17C0 17.2652 0.105357 17.5196 0.292893 17.7071C0.48043 17.8946 0.734784 18 1 18H10C10.2652 18 10.5196 17.8946 10.7071 17.7071C10.8946 17.5196 11 17.2652 11 17C11 16.7348 10.8946 16.4804 10.7071 16.2929C10.5196 16.1054 10.2652 16 10 16ZM26.9575 8.7875C26.9197 8.91378 26.8574 9.03135 26.774 9.13345C26.6907 9.23555 26.588 9.32016 26.4718 9.38243C26.3557 9.44469 26.2283 9.48338 26.0972 9.49626C25.966 9.50915 25.8336 9.49597 25.7075 9.4575L22 8.34375V17C22.0014 17.8823 21.7115 18.7405 21.1753 19.4412C20.6391 20.1419 19.8865 20.646 19.0345 20.8752C18.1824 21.1044 17.2785 21.0459 16.4631 20.7088C15.6477 20.3717 14.9664 19.7748 14.525 19.0108C14.0835 18.2468 13.9066 17.3585 14.0218 16.4837C14.1369 15.6089 14.5376 14.7966 15.1617 14.1728C15.7858 13.5491 16.5983 13.1488 17.4732 13.0342C18.348 12.9195 19.2363 13.0969 20 13.5387V7C20 6.84412 20.0365 6.69041 20.1065 6.55113C20.1766 6.41186 20.2782 6.29088 20.4032 6.19786C20.5283 6.10483 20.6734 6.04234 20.827 6.01537C20.9805 5.98839 21.1382 5.99768 21.2875 6.0425L26.2875 7.5425C26.5414 7.61881 26.7546 7.79283 26.8802 8.02629C27.0059 8.25975 27.0337 8.53356 26.9575 8.7875ZM20 17C20 16.6044 19.8827 16.2178 19.6629 15.8889C19.4432 15.56 19.1308 15.3036 18.7654 15.1522C18.3999 15.0009 17.9978 14.9613 17.6098 15.0384C17.2219 15.1156 16.8655 15.3061 16.5858 15.5858C16.3061 15.8655 16.1156 16.2219 16.0384 16.6098C15.9613 16.9978 16.0009 17.3999 16.1522 17.7654C16.3036 18.1308 16.56 18.4432 16.8889 18.6629C17.2178 18.8827 17.6044 19 18 19C18.5304 19 19.0391 18.7893 19.4142 18.4142C19.7893 18.0391 20 17.5304 20 17Z" fill="white"/>
</svg>
